# xmcd CD database file
#
# Track frame offsets:
#	150
#	11026
#	25215
#	38106
#	55101
#	66540
#	79300
#	91870
#	101246
#	112864
#	125306
#	139655
#
# Disc length: 2013 seconds
#
# Revision: 0
# Processed by: cddbd v1.5.2PL0 Copyright (c) Steve Scherf et al.
# Submitted via: CDex 1.70beta1
#
DISCID=9c07db0c
DTITLE=The Count Bishops - Count Bishops
DYEAR=1900
DGENRE=Blues
TTITLE0=I Need You 
TTITLE1=Stay Free 
TTITLE2=Down In The Bottom
TTITLE3=Talk To You
TTITLE4=Shake Your Moneymaker 
TTITLE5=Down The Road Apiece
TTITLE6=Baby You're Wrong
TTITLE7=Don't Start Cryin' Now
TTITLE8=Someone's Got My Number 
TTITLE9=Sometimes Good Guys Don't Wear White
TTITLE10=You're In My Way 
TTITLE11=Taste And Try, Before You Buy 
EXTD=
EXTT0=
EXTT1=
EXTT2=
EXTT3=
EXTT4=
EXTT5=
EXTT6=
EXTT7=
EXTT8=
EXTT9=
EXTT10=
EXTT11=
PLAYORDER=
